<?xml version="1.0" encoding="UTF-8"?>
<svg id="_Слой_1" data-name="Слой_1" xmlns="http://www.w3.org/2000/svg" version="1.1" xmlns:xlink="http://www.w3.org/1999/xlink" viewBox="0 0 384.11 194.67">
  <!-- Generator: Adobe Illustrator 30.0.0, SVG Export Plug-In . SVG Version: 2.1.1 Build 123)  -->
  <defs>
    <style>
      .st0 {
        fill: #fff;
      }

      .st1 {
        clip-path: url(#clippath);
      }
    </style>
    <clipPath id="clippath">
      <path class="st0" d="M100.9,131.44c-4.87,3.26-10.25,4.89-16.17,4.89-3.9,0-7.64-.75-11.22-2.26-3.58-1.51-6.74-3.63-9.47-6.36-5.75-5.75-8.63-12.67-8.63-20.75,0-3.94.75-7.71,2.26-11.31,1.51-3.6,3.63-6.79,6.36-9.56,2.73-2.73,5.89-4.86,9.47-6.36,3.58-1.51,7.32-2.26,11.22-2.26,8.08,0,15,2.88,20.75,8.63,5.71,5.83,8.57,12.79,8.57,20.87v22.38c0,1.89-.66,3.5-1.99,4.83-1.25,1.37-2.86,2.05-4.83,2.05-1.57,0-2.92-.43-4.04-1.3-1.13-.86-1.89-2.02-2.29-3.47h0ZM73.52,118.23c3.06,3.14,6.8,4.7,11.22,4.7s8.2-1.57,11.34-4.7c3.06-3.14,4.58-6.9,4.58-11.28s-1.53-8.14-4.58-11.28c-3.1-3.1-6.88-4.64-11.34-4.64s-8.12,1.55-11.22,4.64c-3.1,3.1-4.64,6.86-4.64,11.28s1.55,8.18,4.64,11.28h0ZM128.74,133.74c-1.29,1.29-2.83,1.93-4.64,1.93-1.93,0-3.54-.64-4.83-1.93-1.41-1.29-2.11-2.84-2.11-4.64v-23.1c0-7.88,2.75-14.62,8.26-20.21,5.35-5.55,12-8.32,19.97-8.32,3.86,0,7.54.72,11.04,2.17,3.5,1.45,6.57,3.5,9.23,6.15,5.59,5.59,8.38,12.33,8.38,20.21v23.1c0,1.85-.62,3.4-1.87,4.64-1.29,1.29-2.86,1.93-4.7,1.93s-3.48-.64-4.77-1.93c-1.37-1.25-2.05-2.79-2.05-4.64v-23.04c-.08-4.26-1.61-7.82-4.58-10.68-2.98-2.98-6.54-4.46-10.68-4.46s-7.66,1.45-10.56,4.34c-2.82,2.9-4.22,6.47-4.22,10.74v23.1c0,1.85-.62,3.4-1.87,4.64h0ZM186.39,136.21c-1.89,0-3.48-.64-4.77-1.93-1.37-1.25-2.05-2.81-2.05-4.7v-45.42c0-1.85.68-3.42,2.05-4.7,1.33-1.33,2.93-1.99,4.83-1.99s3.38.66,4.7,1.99c1.25,1.33,1.87,2.9,1.87,4.7v45.42c0,1.85-.64,3.42-1.93,4.7-1.29,1.29-2.86,1.93-4.7,1.93ZM209.95,133.74c-1.29,1.29-2.82,1.93-4.58,1.93-1.89,0-3.48-.64-4.77-1.93-1.33-1.33-1.99-2.9-1.99-4.7v-30.82c0-5.71,2.03-10.6,6.09-14.66,4.06-4.06,8.95-6.09,14.66-6.09,5.35,0,10.05,1.85,14.11,5.55,3.94-3.7,8.63-5.55,14.05-5.55,5.83,0,10.82,2.03,14.96,6.09,4.22,4.22,6.33,9.11,6.33,14.66v30.82c0,1.81-.66,3.38-1.99,4.7-1.29,1.29-2.83,1.93-4.64,1.93s-3.48-.64-4.77-1.93c-1.29-1.29-1.93-2.85-1.93-4.7v-30.46c0-1.97-.8-3.7-2.41-5.19-1.49-1.41-3.3-2.11-5.43-2.11-1.85,0-3.5.66-4.95,1.99-1.41,1.25-2.21,2.86-2.41,4.83.04.04.06.26.06.66v30.1c0,1.89-.64,3.48-1.93,4.77-1.29,1.29-2.83,1.93-4.64,1.93s-3.48-.64-4.77-1.93c-1.29-1.29-1.93-2.87-1.93-4.77v-29.74l-.12-.42v-.06c0-2.05-.72-3.8-2.17-5.25-1.45-1.45-3.18-2.17-5.19-2.17-1.89,0-3.54.58-4.95,1.75-1.41,1.17-2.27,2.65-2.59,4.46,0,.12,0,.27.03.45.02.18.04.32.06.42.02.1.03.17.03.21l-.24,30.52c0,1.81-.66,3.38-1.99,4.7h0ZM315.54,131.44c-4.87,3.26-10.25,4.89-16.17,4.89-3.9,0-7.64-.75-11.22-2.26-3.58-1.51-6.74-3.63-9.47-6.36-5.75-5.75-8.63-12.67-8.63-20.75,0-3.94.75-7.71,2.26-11.31,1.51-3.6,3.63-6.79,6.36-9.56,2.73-2.73,5.89-4.86,9.47-6.36,3.58-1.51,7.32-2.26,11.22-2.26,8.08,0,15,2.88,20.75,8.63,5.71,5.83,8.57,12.79,8.57,20.87v22.38c0,1.89-.66,3.5-1.99,4.83-1.25,1.37-2.86,2.05-4.83,2.05-1.57,0-2.92-.43-4.04-1.3-1.13-.86-1.89-2.02-2.29-3.47h0ZM288.16,118.23c3.06,3.14,6.8,4.7,11.22,4.7s8.2-1.57,11.34-4.7c3.06-3.14,4.58-6.9,4.58-11.28s-1.53-8.14-4.58-11.28c-3.1-3.1-6.88-4.64-11.34-4.64s-8.12,1.55-11.22,4.64c-3.1,3.1-4.64,6.86-4.64,11.28s1.55,8.18,4.64,11.28h0Z"/>
    </clipPath>
  </defs>
  <g>
    <path class="st0" d="M100.9,131.44c-4.87,3.26-10.25,4.89-16.17,4.89-3.9,0-7.64-.75-11.22-2.26-3.58-1.51-6.74-3.63-9.47-6.36-5.75-5.75-8.63-12.67-8.63-20.75,0-3.94.75-7.71,2.26-11.31,1.51-3.6,3.63-6.79,6.36-9.56,2.73-2.73,5.89-4.86,9.47-6.36,3.58-1.51,7.32-2.26,11.22-2.26,8.08,0,15,2.88,20.75,8.63,5.71,5.83,8.57,12.79,8.57,20.87v22.38c0,1.89-.66,3.5-1.99,4.83-1.25,1.37-2.86,2.05-4.83,2.05-1.57,0-2.92-.43-4.04-1.3-1.13-.86-1.89-2.02-2.29-3.47h0ZM73.52,118.23c3.06,3.14,6.8,4.7,11.22,4.7s8.2-1.57,11.34-4.7c3.06-3.14,4.58-6.9,4.58-11.28s-1.53-8.14-4.58-11.28c-3.1-3.1-6.88-4.64-11.34-4.64s-8.12,1.55-11.22,4.64c-3.1,3.1-4.64,6.86-4.64,11.28s1.55,8.18,4.64,11.28h0ZM128.74,133.74c-1.29,1.29-2.83,1.93-4.64,1.93-1.93,0-3.54-.64-4.83-1.93-1.41-1.29-2.11-2.84-2.11-4.64v-23.1c0-7.88,2.75-14.62,8.26-20.21,5.35-5.55,12-8.32,19.97-8.32,3.86,0,7.54.72,11.04,2.17,3.5,1.45,6.57,3.5,9.23,6.15,5.59,5.59,8.38,12.33,8.38,20.21v23.1c0,1.85-.62,3.4-1.87,4.64-1.29,1.29-2.86,1.93-4.7,1.93s-3.48-.64-4.77-1.93c-1.37-1.25-2.05-2.79-2.05-4.64v-23.04c-.08-4.26-1.61-7.82-4.58-10.68-2.98-2.98-6.54-4.46-10.68-4.46s-7.66,1.45-10.56,4.34c-2.82,2.9-4.22,6.47-4.22,10.74v23.1c0,1.85-.62,3.4-1.87,4.64h0ZM186.39,136.21c-1.89,0-3.48-.64-4.77-1.93-1.37-1.25-2.05-2.81-2.05-4.7v-45.42c0-1.85.68-3.42,2.05-4.7,1.33-1.33,2.93-1.99,4.83-1.99s3.38.66,4.7,1.99c1.25,1.33,1.87,2.9,1.87,4.7v45.42c0,1.85-.64,3.42-1.93,4.7-1.29,1.29-2.86,1.93-4.7,1.93ZM209.95,133.74c-1.29,1.29-2.82,1.93-4.58,1.93-1.89,0-3.48-.64-4.77-1.93-1.33-1.33-1.99-2.9-1.99-4.7v-30.82c0-5.71,2.03-10.6,6.09-14.66,4.06-4.06,8.95-6.09,14.66-6.09,5.35,0,10.05,1.85,14.11,5.55,3.94-3.7,8.63-5.55,14.05-5.55,5.83,0,10.82,2.03,14.96,6.09,4.22,4.22,6.33,9.11,6.33,14.66v30.82c0,1.81-.66,3.38-1.99,4.7-1.29,1.29-2.83,1.93-4.64,1.93s-3.48-.64-4.77-1.93c-1.29-1.29-1.93-2.85-1.93-4.7v-30.46c0-1.97-.8-3.7-2.41-5.19-1.49-1.41-3.3-2.11-5.43-2.11-1.85,0-3.5.66-4.95,1.99-1.41,1.25-2.21,2.86-2.41,4.83.04.04.06.26.06.66v30.1c0,1.89-.64,3.48-1.93,4.77-1.29,1.29-2.83,1.93-4.64,1.93s-3.48-.64-4.77-1.93c-1.29-1.29-1.93-2.87-1.93-4.77v-29.74l-.12-.42v-.06c0-2.05-.72-3.8-2.17-5.25-1.45-1.45-3.18-2.17-5.19-2.17-1.89,0-3.54.58-4.95,1.75-1.41,1.17-2.27,2.65-2.59,4.46,0,.12,0,.27.03.45.02.18.04.32.06.42.02.1.03.17.03.21l-.24,30.52c0,1.81-.66,3.38-1.99,4.7h0ZM315.54,131.44c-4.87,3.26-10.25,4.89-16.17,4.89-3.9,0-7.64-.75-11.22-2.26-3.58-1.51-6.74-3.63-9.47-6.36-5.75-5.75-8.63-12.67-8.63-20.75,0-3.94.75-7.71,2.26-11.31,1.51-3.6,3.63-6.79,6.36-9.56,2.73-2.73,5.89-4.86,9.47-6.36,3.58-1.51,7.32-2.26,11.22-2.26,8.08,0,15,2.88,20.75,8.63,5.71,5.83,8.57,12.79,8.57,20.87v22.38c0,1.89-.66,3.5-1.99,4.83-1.25,1.37-2.86,2.05-4.83,2.05-1.57,0-2.92-.43-4.04-1.3-1.13-.86-1.89-2.02-2.29-3.47h0ZM288.16,118.23c3.06,3.14,6.8,4.7,11.22,4.7s8.2-1.57,11.34-4.7c3.06-3.14,4.58-6.9,4.58-11.28s-1.53-8.14-4.58-11.28c-3.1-3.1-6.88-4.64-11.34-4.64s-8.12,1.55-11.22,4.64c-3.1,3.1-4.64,6.86-4.64,11.28s1.55,8.18,4.64,11.28h0Z"/>
    <g class="st1">
      <rect class="st0" x="38.17" y="55.22" width="315.35" height="430.18"/>
    </g>
  </g>
  <g>
    <path class="st0" d="M179.57,65.89c0-1.4.3-2.74.94-4,.56-1.09,1.32-2.01,2.35-2.68.68-.45,1.42-.74,2.23-.85.09-.01.19-.02.29-.02.16.01.28.09.39.21.65.78,1.07,1.66,1.22,2.67.15.99,0,1.95-.36,2.88-.25.66-.63,1.26-1,1.85-.6.97-1.07,2-1.32,3.12-.25,1.08-.28,2.16.02,3.23.06.22.15.43.23.65.04.09.06.18-.02.26-.07.08-.16.07-.25.04-1.02-.32-1.87-.89-2.59-1.66-.86-.92-1.44-2.01-1.78-3.22-.23-.81-.34-1.64-.34-2.48Z"/>
    <path class="st0" d="M193.02,65.9c-.02,1.41-.31,2.74-.96,4-.55,1.08-1.31,1.99-2.32,2.66-.72.48-1.5.78-2.36.88-.24.03-.43-.06-.57-.25-.33-.46-.54-.98-.64-1.54-.17-.86-.09-1.72.13-2.56.27-1.03.73-1.97,1.3-2.85.48-.75.88-1.53,1.13-2.38.26-.9.35-1.81.22-2.73-.11-.76-.35-1.47-.72-2.14-.02-.04-.04-.08-.07-.12-.05-.08-.04-.16.02-.23.06-.07.14-.09.22-.06.3.13.61.24.89.39,1.15.62,2,1.54,2.63,2.67.57,1.02.9,2.11,1.02,3.28.03.33.05.66.07.99Z"/>
  </g>
</svg>